name Run_500 02_newCOP3_v24.mot
datacolumns 19
datarows 101
range 0.05 0.154167
DataType=double
version=3
OpenSimVersion=4.3-2021-08-27-4bc7ad9
endheader
time	R_ground_force_vx	R_ground_force_vy	R_ground_force_vz	R_ground_force_px	R_ground_force_py	R_ground_force_pz	L_ground_force_vx	L_ground_force_vy	L_ground_force_vz	L_ground_force_px	L_ground_force_py	L_ground_force_pz	R_ground_torque_x	R_ground_torque_y	R_ground_torque_z	L_ground_torque_x	L_ground_torque_y	L_ground_torque_z
0.05	0	0	0	0	0	0	211.896057	461.988983	13.383858	0.6042999999999999	0	-0.657809	0	0	0	0	-21.012054	0
0.051042	0	0	0	0	0	0	207.451431	444.384644	12.388975	0.601581	0	-0.657755	0	0	0	0	-20.010889	0
0.052083	0	0	0	0	0	0	202.793579	426.324127	11.376772	0.598623	0	-0.657698	0	0	0	0	-19.01359	0
0.053125	0	0	0	0	0	0	197.91806	407.936584	10.357518	0.595432	0	-0.657637	0	0	0	0	-18.021868	0
0.054167	0	0	0	0	0	0	192.817856	389.33786	9.341315	0.592018	0	-0.657574	0	0	0	0	-17.037409	0
0.055208	0	0	0	0	0	0	187.486282	370.634857	8.338012000000001	0.5883930000000001	0	-0.657509	0	0	0	0	-16.061872	0
0.05625	0	0	0	0	0	0	181.918839	351.927551	7.357126	0.58457	0	-0.657443	0	0	0	0	-15.096887	0
0.057292	0	0	0	0	0	0	176.114563	333.309906	6.407739	0.580566	0	-0.657374	0	0	0	0	-14.144034	0
0.058333	0	0	0	0	0	0	170.076859	314.8703	5.498401	0.5764010000000001	0	-0.657304	0	0	0	0	-13.204853	0
0.059375	0	0	0	0	0	0	163.814056	296.691193	4.637029	0.572098	0	-0.65723	0	0	0	0	-12.280828	0
0.060417	0	0	0	0	0	0	157.339676	278.848938	3.830806	0.567685	0	-0.65715	0	0	0	0	-11.373383	0
0.061458	0	0	0	0	0	0	150.672409	261.413666	3.08609	0.563194	0	-0.657062	0	0	0	0	-10.483883	0
0.0625	0	0	0	0	0	0	143.835938	244.448776	2.408329	0.558665	0	-0.656963	0	0	0	0	-9.613621999999999	0
0.063542	0	0	0	0	0	0	136.858551	228.010956	1.801987	0.5541430000000001	0	-0.656847	0	0	0	0	-8.763824	0
0.064583	0	0	0	0	0	0	129.772568	212.149918	1.27048	0.549681	0	-0.656711	0	0	0	0	-7.935636	0
0.065625	0	0	0	0	0	0	122.613632	196.908432	0.816128	0.545342	0	-0.656548	0	0	0	0	-7.130125	0
0.066667	0	0	0	0	0	0	115.419868	182.322281	0.440127	0.5412	0	-0.65635	0	0	0	0	-6.348277	0
0.067708	0	0	0	0	0	0	108.231033	168.420349	0.142529	0.537341	0	-0.656112	0	0	0	0	-5.590995	0
0.06875000000000001	0	0	0	0	0	0	101.087532	155.224731	-0.077747	0.533866	0	-0.655825	0	0	0	0	-4.859095	0
0.06979200000000001	0	0	0	0	0	0	94.029526	142.750916	-0.222894	0.530891	0	-0.65548	0	0	0	0	-4.153306	0
0.07083299999999999	0	0	0	0	0	0	87.096031	131.007904	-0.296173	0.528549	0	-0.655069	0	0	0	0	-3.474268	0
0.07187499999999999	0	0	0	0	0	0	80.32410400000001	119.998497	-0.30185	0.526991	0	-0.654583	0	0	0	0	-2.822534	0
0.072917	0	0	0	0	0	0	73.748169	109.719521	-0.245111	0.526384	0	-0.654013	0	0	0	0	-2.198569	0
0.073958	0	0	0	0	0	0	67.399399	100.162086	-0.131967	0.52691	0	-0.653352	0	0	0	0	-1.60275	0
0.075	0	0	0	0	0	0	61.305302	91.31192	0.030866	0.528766	0	-0.6525919999999999	0	0	0	0	-1.035368	0
0.076042	0	0	0	0	0	0	55.489429	83.14971199999999	0.236093	0.53215	0	-0.651726	0	0	0	0	-0.496629	0
0.077083	0	0	0	0	0	0	49.971214	75.65152	0.475983	0.537261	0	-0.6507500000000001	0	0	0	-0	0.013344	-0
0.078125	0	0	0	0	0	0	44.765942	68.789207	0.742518	0.544279	0	-0.64966	0	0	0	-0	0.494509	-0
0.079167	0	0	0	0	0	0	39.88483	62.530968	1.027547	0.55336	0	-0.6484529999999999	0	0	0	-0	0.946902	-0
0.080208	0	0	0	0	0	0	35.33519	56.841843	1.32294	0.564609	0	-0.647129	0	0	0	-0	1.370634	-0
0.08125	0	0	0	0	0	0	31.120646	51.684357	1.620753	0.57807	0	-0.645688	0	0	0	-0	1.765892	-0
0.082292	0	0	0	0	0	0	27.241407	47.019157	1.913367	0.593701	0	-0.644132	0	0	0	-0	2.132928	-0
0.083333	0	0	0	0	0	0	23.694538	42.805691	2.193644	0.611365	0	-0.642462	0	0	0	-0	2.472063	-0
0.08437500000000001	0	0	0	0	0	0	20.474251	39.002926	2.455048	0.630815	0	-0.640678	0	0	0	-0	2.783679	-0
0.08541700000000001	0	0	0	0	0	0	17.572166	35.570045	2.691774	0.651691	0	-0.638778	0	0	0	-0	3.068219	-0
0.08645799999999999	0	0	0	0	0	0	14.977573	32.467175	2.898845	0.673526	0	-0.636759	0	0	0	-0	3.326181	-0
0.08749999999999999	0	0	0	0	0	0	12.677671	29.656027	3.072196	0.695757	0	-0.63461	0	0	0	-0	3.558113	-0
0.088542	0	0	0	0	0	0	10.65779	27.100555	3.208742	0.717746	0	-0.632314	0	0	0	-0	3.764614	-0
0.089583	0	0	0	0	0	0	8.901609000000001	24.767498	3.306414	0.738805	0	-0.62985	0	0	0	-0	3.946327	-0
0.090625	0	0	0	0	0	0	7.391376	22.62685	3.364183	0.758219	0	-0.627186	0	0	0	-0	4.103935	-0
0.091667	0	0	0	0	0	0	6.10813	20.652233	3.382058	0.775271	0	-0.624282	0	0	0	-0	4.238161	-0
0.092708	0	0	0	0	0	0	5.031945	18.821157	3.361056	0.789262	0	-0.621089	0	0	0	-0	4.34976	-0
0.09375	0	0	0	0	0	0	4.142194	17.115145	3.303154	0.799515	0	-0.617548	0	0	0	-0	4.439521	-0
0.094792	0	0	0	0	0	0	3.417826	15.519743	3.211229	0.805385	0	-0.6135930000000001	0	0	0	-0	4.508261	-0
0.095833	0	0	0	0	0	0	2.837671	14.024402	3.088959	0.80625	0	-0.609145	0	0	0	-0	4.556819	-0
0.096875	0	0	0	0	0	0	2.380755	12.622231	2.940727	0.8015060000000001	0	-0.604123	0	0	0	-0	4.586061	-0
0.097917	0	0	0	0	0	0	2.026626	11.309652	2.771498	0.790562	0	-0.598438	0	0	0	-0	4.596869	-0
0.098958	0	0	0	0	0	0	1.755668	10.085948	2.586693	0.772848	0	-0.5920029999999999	0	0	0	-0	4.590145	-0
0.1	0	0	0	0	0	0	0	0	0	0	0	0	0	0	0	0	0	0
0.101042	0	0	0	0	0	0	0	0	0	0	0	0	0	0	0	0	0	0
0.102083	0	0	0	0	0	0	0	0	0	0	0	0	0	0	0	0	0	0
0.103125	0	0	0	0	0	0	0	0	0	0	0	0	0	0	0	0	0	0
0.104167	0	0	0	0	0	0	0	0	0	0	0	0	0	0	0	0	0	0
0.105208	0	0	0	0	0	0	0	0	0	0	0	0	0	0	0	0	0	0
0.10625	0	0	0	0	0	0	0	0	0	0	0	0	0	0	0	0	0	0
0.107292	0	0	0	0	0	0	0	0	0	0	0	0	0	0	0	0	0	0
0.108333	0	0	0	0	0	0	0	0	0	0	0	0	0	0	0	0	0	0
0.109375	0	0	0	0	0	0	0	0	0	0	0	0	0	0	0	0	0	0
0.110417	0	0	0	0	0	0	0	0	0	0	0	0	0	0	0	0	0	0
0.111458	0	0	0	0	0	0	0	0	0	0	0	0	0	0	0	0	0	0
0.1125	0	0	0	0	0	0	0	0	0	0	0	0	0	0	0	0	0	0
0.113542	0	0	0	0	0	0	0	0	0	0	0	0	0	0	0	0	0	0
0.114583	0	0	0	0	0	0	0	0	0	0	0	0	0	0	0	0	0	0
0.115625	0	0	0	0	0	0	0	0	0	0	0	0	0	0	0	0	0	0
0.116667	0	0	0	0	0	0	0	0	0	0	0	0	0	0	0	0	0	0
0.117708	0	0	0	0	0	0	0	0	0	0	0	0	0	0	0	0	0	0
0.11875	0	0	0	0	0	0	0	0	0	0	0	0	0	0	0	0	0	0
0.119792	0	0	0	0	0	0	0	0	0	0	0	0	0	0	0	0	0	0
0.120833	0	0	0	0	0	0	0	0	0	0	0	0	0	0	0	0	0	0
0.121875	0	0	0	0	0	0	0	0	0	0	0	0	0	0	0	0	0	0
0.122917	0	0	0	0	0	0	0	0	0	0	0	0	0	0	0	0	0	0
0.123958	0	0	0	0	0	0	0	0	0	0	0	0	0	0	0	0	0	0
0.125	0	0	0	0	0	0	0	0	0	0	0	0	0	0	0	0	0	0
0.126042	0	0	0	0	0	0	0	0	0	0	0	0	0	0	0	0	0	0
0.127083	0	0	0	0	0	0	0	0	0	0	0	0	0	0	0	0	0	0
0.128125	0	0	0	0	0	0	0	0	0	0	0	0	0	0	0	0	0	0
0.129167	0	0	0	0	0	0	0	0	0	0	0	0	0	0	0	0	0	0
0.130208	0	0	0	0	0	0	0	0	0	0	0	0	0	0	0	0	0	0
0.13125	0	0	0	0	0	0	0	0	0	0	0	0	0	0	0	0	0	0
0.132292	0	0	0	0	0	0	0	0	0	0	0	0	0	0	0	0	0	0
0.133333	0	0	0	0	0	0	0	0	0	0	0	0	0	0	0	0	0	0
0.134375	0	0	0	0	0	0	0	0	0	0	0	0	0	0	0	0	0	0
0.135417	0	0	0	0	0	0	0	0	0	0	0	0	0	0	0	0	0	0
0.136458	0	0	0	0	0	0	0	0	0	0	0	0	0	0	0	0	0	0
0.1375	0	0	0	0	0	0	0	0	0	0	0	0	0	0	0	0	0	0
0.138542	0	0	0	0	0	0	0	0	0	0	0	0	0	0	0	0	0	0
0.139583	0	0	0	0	0	0	0	0	0	0	0	0	0	0	0	0	0	0
0.140625	0	0	0	0	0	0	0	0	0	0	0	0	0	0	0	0	0	0
0.141667	0	0	0	0	0	0	0	0	0	0	0	0	0	0	0	0	0	0
0.142708	0	0	0	0	0	0	0	0	0	0	0	0	0	0	0	0	0	0
0.14375	0	0	0	0	0	0	0	0	0	0	0	0	0	0	0	0	0	0
0.144792	0	0	0	0	0	0	0	0	0	0	0	0	0	0	0	0	0	0
0.145833	0	0	0	0	0	0	0	0	0	0	0	0	0	0	0	0	0	0
0.146875	0	0	0	0	0	0	0	0	0	0	0	0	0	0	0	0	0	0
0.147917	0	0	0	0	0	0	0	0	0	0	0	0	0	0	0	0	0	0
0.148958	0	0	0	0	0	0	0	0	0	0	0	0	0	0	0	0	0	0
0.15	0	0	0	0	0	0	0	0	0	0	0	0	0	0	0	0	0	0
0.151042	0	0	0	0	0	0	0	0	0	0	0	0	0	0	0	0	0	0
0.152083	0	0	0	0	0	0	0	0	0	0	0	0	0	0	0	0	0	0
0.153125	0	0	0	0	0	0	0	0	0	0	0	0	0	0	0	0	0	0
0.154167	0	0	0	0	0	0	0	0	0	0	0	0	0	0	0	0	0	0
